<mxfile host="app.diagrams.net" modified="2024-02-26T08:47:22.549Z" agent="Mozilla/5.0 (Windows NT 10.0; Win64; x64; rv:123.0) Gecko/20100101 Firefox/123.0" etag="1Z8HmEIWSIYcii1lPoX2" version="23.1.6" type="device" pages="2">
  <diagram name="Outlook" id="0RL0PeP_t3vScajWmenQ">
    <mxGraphModel dx="1434" dy="746" grid="1" gridSize="10" guides="1" tooltips="1" connect="1" arrows="1" fold="1" page="1" pageScale="1" pageWidth="827" pageHeight="1169" math="0" shadow="0">
      <root>
        <mxCell id="0" />
        <mxCell id="1" parent="0" />
        <mxCell id="DpFJp--kC5ubluP9WqHi-2" value="" style="shape=hexagon;perimeter=hexagonPerimeter2;whiteSpace=wrap;html=1;fixedSize=1;" vertex="1" parent="1">
          <mxGeometry x="330" y="240" width="190" height="130" as="geometry" />
        </mxCell>
        <mxCell id="DpFJp--kC5ubluP9WqHi-3" value="Metadata" style="rounded=1;whiteSpace=wrap;html=1;" vertex="1" parent="1">
          <mxGeometry x="560" y="190" width="120" height="60" as="geometry" />
        </mxCell>
        <mxCell id="DpFJp--kC5ubluP9WqHi-4" value="API" style="rounded=1;whiteSpace=wrap;html=1;" vertex="1" parent="1">
          <mxGeometry x="150" y="190" width="120" height="60" as="geometry" />
        </mxCell>
        <mxCell id="DpFJp--kC5ubluP9WqHi-5" value="Storage" style="rounded=1;whiteSpace=wrap;html=1;" vertex="1" parent="1">
          <mxGeometry x="365" y="415" width="120" height="60" as="geometry" />
        </mxCell>
      </root>
    </mxGraphModel>
  </diagram>
  <diagram id="xFtiWtmS1lj8CjhnOtDF" name="StorageFilter">
    <mxGraphModel dx="683" dy="355" grid="1" gridSize="10" guides="1" tooltips="1" connect="1" arrows="1" fold="1" page="1" pageScale="1" pageWidth="827" pageHeight="1169" math="0" shadow="0">
      <root>
        <mxCell id="0" />
        <mxCell id="1" parent="0" />
        <mxCell id="3v_CKMv3qHTmuJRT5JhQ-14" style="edgeStyle=orthogonalEdgeStyle;rounded=0;orthogonalLoop=1;jettySize=auto;html=1;endArrow=classic;endFill=1;startArrow=classic;startFill=1;" edge="1" parent="1" source="3v_CKMv3qHTmuJRT5JhQ-1">
          <mxGeometry relative="1" as="geometry">
            <mxPoint x="370" y="170" as="targetPoint" />
          </mxGeometry>
        </mxCell>
        <mxCell id="3v_CKMv3qHTmuJRT5JhQ-1" value="storage filter" style="rounded=1;whiteSpace=wrap;html=1;" vertex="1" parent="1">
          <mxGeometry x="310" y="210" width="120" height="60" as="geometry" />
        </mxCell>
        <mxCell id="3v_CKMv3qHTmuJRT5JhQ-2" value="&lt;font style=&quot;font-size: 20px;&quot;&gt;&lt;b&gt;Storage&lt;/b&gt;&lt;/font&gt;" style="text;html=1;align=center;verticalAlign=middle;resizable=0;points=[];autosize=1;strokeColor=none;fillColor=none;" vertex="1" parent="1">
          <mxGeometry x="290" y="123" width="100" height="40" as="geometry" />
        </mxCell>
        <mxCell id="3v_CKMv3qHTmuJRT5JhQ-11" style="edgeStyle=orthogonalEdgeStyle;rounded=0;orthogonalLoop=1;jettySize=auto;html=1;" edge="1" parent="1" source="3v_CKMv3qHTmuJRT5JhQ-3" target="3v_CKMv3qHTmuJRT5JhQ-5">
          <mxGeometry relative="1" as="geometry" />
        </mxCell>
        <mxCell id="3v_CKMv3qHTmuJRT5JhQ-3" value="Input filter&lt;br&gt;( store)" style="rounded=1;whiteSpace=wrap;html=1;" vertex="1" parent="1">
          <mxGeometry x="161" y="310" width="120" height="60" as="geometry" />
        </mxCell>
        <mxCell id="3v_CKMv3qHTmuJRT5JhQ-12" style="edgeStyle=orthogonalEdgeStyle;rounded=0;orthogonalLoop=1;jettySize=auto;html=1;entryX=1;entryY=0.5;entryDx=0;entryDy=0;exitX=0.5;exitY=0;exitDx=0;exitDy=0;" edge="1" parent="1">
          <mxGeometry relative="1" as="geometry">
            <mxPoint x="520" y="310" as="sourcePoint" />
            <mxPoint x="428" y="240" as="targetPoint" />
            <Array as="points">
              <mxPoint x="520" y="240" />
            </Array>
          </mxGeometry>
        </mxCell>
        <mxCell id="3v_CKMv3qHTmuJRT5JhQ-4" value="Output filter&lt;br&gt;(recover)" style="rounded=1;whiteSpace=wrap;html=1;" vertex="1" parent="1">
          <mxGeometry x="462" y="310" width="120" height="60" as="geometry" />
        </mxCell>
        <mxCell id="3v_CKMv3qHTmuJRT5JhQ-5" value="Input filters:&lt;br&gt;crypt, prepare, sharding, etc" style="rounded=1;whiteSpace=wrap;html=1;" vertex="1" parent="1">
          <mxGeometry x="161" y="410" width="120" height="60" as="geometry" />
        </mxCell>
        <mxCell id="3v_CKMv3qHTmuJRT5JhQ-13" style="edgeStyle=orthogonalEdgeStyle;rounded=0;orthogonalLoop=1;jettySize=auto;html=1;entryX=0.5;entryY=1;entryDx=0;entryDy=0;" edge="1" parent="1" source="3v_CKMv3qHTmuJRT5JhQ-8" target="3v_CKMv3qHTmuJRT5JhQ-4">
          <mxGeometry relative="1" as="geometry" />
        </mxCell>
        <mxCell id="3v_CKMv3qHTmuJRT5JhQ-8" value="Output filters:&lt;br&gt;decrypt, prepare, enhance, etc" style="rounded=1;whiteSpace=wrap;html=1;" vertex="1" parent="1">
          <mxGeometry x="462" y="410" width="120" height="60" as="geometry" />
        </mxCell>
        <mxCell id="3v_CKMv3qHTmuJRT5JhQ-9" value="" style="endArrow=classic;html=1;rounded=0;exitX=0;exitY=0.5;exitDx=0;exitDy=0;" edge="1" parent="1" source="3v_CKMv3qHTmuJRT5JhQ-1" target="3v_CKMv3qHTmuJRT5JhQ-3">
          <mxGeometry width="50" height="50" relative="1" as="geometry">
            <mxPoint x="390" y="410" as="sourcePoint" />
            <mxPoint x="440" y="360" as="targetPoint" />
            <Array as="points">
              <mxPoint x="220" y="240" />
            </Array>
          </mxGeometry>
        </mxCell>
      </root>
    </mxGraphModel>
  </diagram>
</mxfile>
